<svg width="142" height="23" viewBox="0 0 142 23" fill="none" xmlns="http://www.w3.org/2000/svg">
<path d="M11.2387 22.4554C9.94079 22.4555 8.65265 22.2317 7.43088 21.7938C4.78645 20.8435 2.59448 18.9363 1.28781 16.4487C-0.0188646 13.9611 -0.345243 11.0739 0.373122 8.35742C1.09149 5.6409 2.80237 3.29247 5.16793 1.77587C7.53349 0.259275 10.3818 -0.315244 13.1503 0.165767C15.9188 0.646778 18.4063 2.14835 20.1217 4.37397C21.837 6.5996 22.6554 9.38747 22.4153 12.1871C22.1752 14.9867 20.894 17.5945 18.8248 19.4956C16.7555 21.3967 14.0487 22.4528 11.2387 22.4554ZM11.2387 2.05138C9.09847 2.05414 7.02794 2.81223 5.392 4.19205C3.75605 5.57187 2.65968 7.48485 2.29613 9.59385C1.93257 11.7028 2.32516 13.8725 3.4047 15.7204C4.48425 17.5682 6.18145 18.9758 8.19719 19.6949C10.4694 20.5028 12.9695 20.3749 15.1475 19.3395C17.3255 18.3042 19.003 16.446 19.8109 14.1739C20.6188 11.9017 20.491 9.40171 19.4555 7.22381C18.4201 5.04591 16.5619 3.36852 14.2896 2.56065C13.3045 2.21689 12.2677 2.04464 11.2244 2.05138H11.2387Z" fill="#1F1F1F"/>
<path d="M10.3476 20.9462C9.6432 20.9462 9.2767 21.0699 8.59606 20.8272L8.18197 19.6944C8.67458 19.8716 9.19745 19.9494 9.72033 19.9233C10.2432 19.8972 10.7557 19.7676 11.2282 19.5421C12.1802 19.0847 12.9138 18.2708 13.2701 17.2766C13.6244 16.2831 13.5697 15.1897 13.1181 14.2365C12.6665 13.2834 11.8549 12.5485 10.8617 12.1934C9.70362 11.7809 8.69387 11.0343 7.96011 10.048C7.22636 9.06166 6.80155 7.87993 6.7394 6.6522C6.67724 5.42447 6.98054 4.20588 7.61093 3.1505C8.24133 2.09513 9.17051 1.25036 10.281 0.723012C11.7803 0.0138444 11.7089 0.875316 13.2891 1.42742L14.2744 2.57922C13.7795 2.39478 13.2528 2.3106 12.725 2.33157C12.1973 2.35254 11.6789 2.47824 11.2002 2.70136C10.7215 2.92448 10.2919 3.24057 9.93644 3.63123C9.58099 4.02189 9.30678 4.47934 9.12975 4.97695C8.95272 5.47456 8.87642 6.0024 8.90527 6.52977C8.93413 7.05714 9.06756 7.57351 9.29782 8.04884C9.52809 8.52417 9.85057 8.94896 10.2465 9.29852C10.6425 9.64807 11.104 9.91541 11.6042 10.085C12.7606 10.4993 13.7684 11.2466 14.5006 12.2328C15.2329 13.219 15.6568 14.3999 15.7189 15.6266C15.781 16.8533 15.4785 18.071 14.8496 19.1261C14.2207 20.1811 13.2935 21.0264 12.1849 21.5554C11.3377 21.9552 11.2567 20.9462 10.3476 20.9462Z" fill="#1F1F1F"/>
<path d="M34.0239 2.04138H37.2134V10.1754H37.2612L44.434 2.01758H48.2929L40.7854 10.4752L48.9815 20.218H44.9457L37.2947 10.9797L37.2469 11.0035V20.218H34.0431L34.0239 2.04138Z" fill="#1F1F1F"/>
<path d="M53.0654 2.04102H58.3924C60.2573 2.04102 62.0744 2.16476 63.5138 2.94056C64.3242 3.35754 65.0001 3.99365 65.4636 4.77581C65.9272 5.55796 66.1596 6.45441 66.1342 7.36215C66.1342 9.82282 64.6471 11.7314 62.0744 12.3596L67.5735 20.2176H63.815L58.7319 12.7118H56.2836V20.2176H53.0798L53.0654 2.04102ZM58.8036 10.2512C60.2669 10.2512 61.2519 10.0513 61.9836 9.52297C62.2895 9.29806 62.5347 9.0013 62.6974 8.65915C62.8601 8.31701 62.9352 7.9401 62.916 7.56205C62.9382 7.10934 62.8251 6.66025 62.5911 6.27144C62.357 5.88264 62.0125 5.57155 61.601 5.37743C60.7929 4.95384 59.7839 4.90148 58.1963 4.90148H56.2501V10.2512H58.8036Z" fill="#1F1F1F"/>
<path d="M71.6677 2.04102H74.8715V20.2176H71.6677V2.04102Z" fill="#1F1F1F"/>
<path d="M80.5581 15.6402C82.2411 16.7658 84.2076 17.399 86.2341 17.4678C88.0512 17.4678 89.3663 16.7111 89.3663 15.0881C89.3663 13.1367 87.4535 12.8702 85.0626 12.1895C82.5139 11.4328 80.1182 10.3095 80.1182 7.16826C80.1182 4.02698 82.5904 2.05179 86.2724 2.05179C88.1691 2.02684 90.0428 2.46652 91.7285 3.3321V6.44957C90.0926 5.42672 88.2129 4.8551 86.282 4.79326C84.5653 4.79326 83.3555 5.45008 83.3555 6.9398C83.3555 8.81505 85.2682 9.05779 87.4679 9.7146C90.1648 10.519 92.5892 11.666 92.5892 14.9072C92.5892 18.1485 90.0166 20.2188 86.2294 20.2188C84.2677 20.2062 82.3347 19.7488 80.5772 18.8814L80.5581 15.6402Z" fill="#1F1F1F"/>
<path d="M100.884 4.87719H94.9062V2.02148H110.117V4.87719H104.087V20.2171H100.884V4.87719Z" fill="#1F1F1F"/>
<path d="M127.558 20.2176H124.153L122.413 15.7722H114.542L112.768 20.2176H109.468L116.961 2.04102H120.093L127.558 20.2176ZM115.575 13.145H121.375L120.313 10.4082C119.682 8.77573 119.08 7.16701 118.496 5.5345H118.449C117.841 7.21937 117.263 8.77573 116.631 10.4082L115.575 13.145Z" fill="#1F1F1F"/>
<path d="M130.495 2.04102H133.699V17.3809H142V20.2366H130.495V2.04102Z" fill="#1F1F1F"/>
</svg>
